<svg width="36" height="32" viewBox="0 0 36 32" fill="none" xmlns="http://www.w3.org/2000/svg">
<path d="M8.123 0.0098114C7.49527 0.0456924 6.80932 0.253807 6.05562 0.640135C4.79276 1.28481 3.50025 2.41389 2.46604 3.77501C1.79173 4.66248 1.2127 5.67435 0.810445 6.67186C0.0641587 8.52336 -0.169784 10.3916 0.121321 12.1857C0.246231 12.956 0.481232 13.743 0.806211 14.4762C1.31961 15.6375 2.04685 16.6913 3.05248 17.7306C3.12235 17.8024 3.57965 18.2485 4.0687 18.7222C8.5496 23.0567 17.6194 31.9135 17.6427 31.9793C17.6511 32.0032 17.6871 32.008 17.6871 31.9853C17.6871 31.9685 17.7019 31.9554 19.1691 30.6158C23.3187 26.8279 27.8567 22.7146 31.7925 19.1755C32.8807 18.1959 33.0511 18.0308 33.5232 17.489C34.4632 16.4114 35.1227 15.2727 35.5387 14.0133C35.7949 13.2346 35.9473 12.4118 35.9907 11.5578C36.0119 11.1439 35.996 10.5507 35.9515 10.1046C35.7938 8.51619 35.2413 6.86323 34.3658 5.36337C32.9706 2.97365 30.8588 1.11019 28.911 0.549234C28.2981 0.372217 27.6291 0.350689 26.8913 0.483452C25.0155 0.821936 22.7386 2.1376 20.1483 4.38021C19.5523 4.89571 18.8367 5.56312 18.2058 6.18985L18.0735 6.32142L17.9888 6.23171C16.2379 4.36825 14.6797 2.97724 13.1565 1.91753C11.5908 0.829113 10.1523 0.191612 8.92221 0.0397129C8.77931 0.0217724 8.38552 -0.00334549 8.31354 0.000242233C8.2966 0.000242233 8.2098 0.00502777 8.123 0.0098114Z" fill="#E71D36"/>
</svg>
